<svg xmlns="http://www.w3.org/2000/svg" xmlns:xlink="http://www.w3.org/1999/xlink" viewBox="0 0 1007.97 236.66"><defs><style>.cls-1{fill:url(#linear-gradient);}.cls-2{fill:url(#linear-gradient-2);}.cls-3{fill:url(#linear-gradient-3);}.cls-4{fill:url(#linear-gradient-4);}.cls-5{fill:url(#linear-gradient-5);}.cls-6{fill:url(#linear-gradient-6);}.cls-7{fill:url(#linear-gradient-8);}</style><linearGradient id="linear-gradient" x1="390.86" y1="347.04" x2="390.86" y2="164.47" gradientUnits="userSpaceOnUse"><stop offset="0" stop-color="#fff"/><stop offset="0.04" stop-color="#eff6f9"/><stop offset="0.25" stop-color="#a8cfdd"/><stop offset="0.45" stop-color="#6daec5"/><stop offset="0.62" stop-color="#3f95b3"/><stop offset="0.78" stop-color="#1e82a6"/><stop offset="0.91" stop-color="#0a779e"/><stop offset="1" stop-color="#03739b"/></linearGradient><linearGradient id="linear-gradient-2" x1="564.71" y1="350.32" x2="564.71" y2="167.75" xlink:href="#linear-gradient"/><linearGradient id="linear-gradient-3" x1="749.45" y1="350.32" x2="749.45" y2="167.75" xlink:href="#linear-gradient"/><linearGradient id="linear-gradient-4" x1="883.57" y1="350.32" x2="883.57" y2="167.75" xlink:href="#linear-gradient"/><linearGradient id="linear-gradient-5" x1="189.42" y1="321.84" x2="189.42" y2="139.27" xlink:href="#linear-gradient"/><linearGradient id="linear-gradient-6" x1="24.43" y1="276.26" x2="24.43" y2="188.79" xlink:href="#linear-gradient"/><linearGradient id="linear-gradient-8" x1="983.54" y1="276.26" x2="983.54" y2="188.79" xlink:href="#linear-gradient"/></defs><title>Asset 2</title><g id="Layer_2" data-name="Layer 2"><g id="Layer_1-2" data-name="Layer 1"><path class="cls-1" d="M431.3,134.13c-6.34-4.38-17.93-10.93-29.73-10.93-2.84,0-7.21.43-10.06,2.62a6,6,0,0,0-2.62,5.25c0,3.06.44,5.9,8.52,7.65l16.84,3.71c12.9,2.85,20.55,8.09,24.92,12.47,9.18,9,11.15,20.11,11.15,28.85,0,12.46-3.28,24.05-13.12,34.32-8.3,8.53-24,18.59-51.37,18.59-22.3,0-37.17-6.34-49.63-11.37l-4.81-2,16-41.1,5.69,4.37c5.46,4.16,16.61,10.72,29.51,10.72,7.22,0,10.27-1.75,11.37-2.63a7.82,7.82,0,0,0,2.84-6.56,7.06,7.06,0,0,0-1.75-5c-1.75-1.75-4.59-2.41-10.06-3.5l-12.89-2.41c-8.31-1.53-17.27-4.15-25.36-12.46-7.44-7.65-10.5-16.39-10.5-26.89,0-13.55,4.59-25.14,14.21-34.76,11.15-11.37,27.55-18.8,50.72-18.8,11.59,0,26.67,2,44.38,12.68Z"/><path class="cls-2" d="M466,236.66,489.62,90.84h38.22a21.5,21.5,0,0,1,20.67,15.6l12.6,44.08a109.57,109.57,0,0,1,3.28,16.84h1.31a63.2,63.2,0,0,1,2.84-16.84l12.6-44.08a21.5,21.5,0,0,1,20.67-15.6h37.78l23.83,145.82H630.07a19.45,19.45,0,0,1-19.35-17.51l-4.8-47.86a140.45,140.45,0,0,1-.87-14.43h-.88a124.22,124.22,0,0,1-2.84,12.24L584.39,222a21.12,21.12,0,0,1-20.11,14.67h0a21.09,21.09,0,0,1-20.19-15l-14.9-48.88a61,61,0,0,1-2.84-16h-1.53c0,2.85,0,8.53-.22,11.37l-5.38,51a19.44,19.44,0,0,1-19.34,17.41Z"/><path class="cls-3" d="M686.81,90.84h63.62c12.46,0,31.92,1.31,43.51,12.24,3.49,3.28,11.14,12,11.14,28.42,0,5.47-.65,13.34-6.12,20.12a30.94,30.94,0,0,1-12.68,9l-.21,1.31a33.72,33.72,0,0,1,15.3,8.75c7.21,7,10.71,14.86,10.71,25.36,0,11.36-3.72,21.42-13.77,29.51-12.24,9.83-27.11,11.15-37.39,11.15H686.81Zm49,56h8.3c3.06,0,7.65-.88,10.06-3.28a10.45,10.45,0,0,0,2.84-7.65,9.65,9.65,0,0,0-3.28-7.65c-2.84-2.19-7.65-2.41-9.62-2.41h-8.3Zm0,54.65H746.5c3.06,0,7.65-.22,11.15-2.4a11.52,11.52,0,0,0,5-9.84,11.08,11.08,0,0,0-3.93-8.75c-3.5-2.84-8.75-3.06-11.59-3.06H735.79Z"/><path class="cls-4" d="M834.82,236.66V90.84h46.41v96.83a11.39,11.39,0,0,0,11.39,11.39h28.23a11.47,11.47,0,0,1,11.47,11.47v26.13Z"/><path class="cls-5" d="M318,236.66H228.27S190.66,102.18,190,93.67h-2.13c-.35,9.58-37.25,143-37.25,143H60.8L139,34.44A53.87,53.87,0,0,1,189.27,0h0a53.87,53.87,0,0,1,50.22,34.37Z"/><path class="cls-6" d="M11,153.18H37.84a11,11,0,0,1,11,11v72.46H0V164.2A11,11,0,0,1,11,153.18Z"/><path class="cls-6" d="M11.72,83H37.14A11.72,11.72,0,0,1,48.86,94.75v18.31a11.72,11.72,0,0,1-11.72,11.72H11.72A11.72,11.72,0,0,1,0,113.06V94.75A11.72,11.72,0,0,1,11.72,83Z"/><path class="cls-7" d="M970.54,153.18h26A11.43,11.43,0,0,1,1008,164.61v72H959.11v-72A11.43,11.43,0,0,1,970.54,153.18Z"/><path class="cls-7" d="M970.54,83h26A11.43,11.43,0,0,1,1008,94.47v18.88a11.43,11.43,0,0,1-11.43,11.43h-26a11.43,11.43,0,0,1-11.43-11.43V94.47A11.43,11.43,0,0,1,970.54,83Z"/></g></g></svg>