<svg xmlns="http://www.w3.org/2000/svg" xmlns:xlink="http://www.w3.org/1999/xlink" viewBox="0 0 992.61 178.85"><defs><style>.cls-1{fill:url(#linear-gradient);}.cls-2{fill:url(#linear-gradient-2);}.cls-3{fill:url(#linear-gradient-3);}.cls-4{fill:url(#linear-gradient-4);}.cls-5{fill:url(#linear-gradient-5);}.cls-6{fill:url(#linear-gradient-6);}.cls-7{fill:url(#linear-gradient-7);}.cls-8{fill:url(#linear-gradient-8);}.cls-9{fill:url(#linear-gradient-10);}</style><linearGradient id="linear-gradient" x1="324.73" y1="249.55" x2="324.73" y2="133.55" gradientUnits="userSpaceOnUse"><stop offset="0" stop-color="#fff"/><stop offset="0.04" stop-color="#eff6f9"/><stop offset="0.25" stop-color="#a8cfdd"/><stop offset="0.45" stop-color="#6daec5"/><stop offset="0.62" stop-color="#3f95b3"/><stop offset="0.78" stop-color="#1e82a6"/><stop offset="0.91" stop-color="#0a779e"/><stop offset="1" stop-color="#03739b"/></linearGradient><linearGradient id="linear-gradient-2" x1="424.53" y1="249.55" x2="424.53" y2="133.55" xlink:href="#linear-gradient"/><linearGradient id="linear-gradient-3" x1="549.51" y1="249.55" x2="549.51" y2="133.55" xlink:href="#linear-gradient"/><linearGradient id="linear-gradient-4" x1="689.12" y1="249.55" x2="689.12" y2="133.55" xlink:href="#linear-gradient"/><linearGradient id="linear-gradient-5" x1="790.49" y1="249.55" x2="790.49" y2="133.55" xlink:href="#linear-gradient"/><linearGradient id="linear-gradient-6" x1="878.38" y1="249.55" x2="878.38" y2="133.55" xlink:href="#linear-gradient"/><linearGradient id="linear-gradient-7" x1="169.15" y1="230.51" x2="169.15" y2="114.51" xlink:href="#linear-gradient"/><linearGradient id="linear-gradient-8" x1="24.06" y1="219.21" x2="24.06" y2="130.07" xlink:href="#linear-gradient"/><linearGradient id="linear-gradient-10" x1="968.55" y1="219.21" x2="968.55" y2="130.07" xlink:href="#linear-gradient"/></defs><title>Asset 1</title><g id="Layer_2" data-name="Layer 2"><g id="Layer_1-2" data-name="Layer 1"><path class="cls-1" d="M355.3,101.36c-4.79-3.3-13.55-8.26-22.47-8.26-2.15,0-5.45.33-7.6,2a4.49,4.49,0,0,0-2,4c0,2.31.33,4.46,6.44,5.78l12.72,2.81c9.75,2.15,15.53,6.12,18.84,9.42,6.94,6.77,8.42,15.2,8.42,21.81,0,9.41-2.48,18.17-9.91,25.94-6.28,6.44-18.17,14-38.82,14-16.86,0-28.09-4.79-37.51-8.59l-3.63-1.49,12.06-31.06,4.29,3.31c4.13,3.14,12.56,8.09,22.31,8.09,5.45,0,7.76-1.32,8.59-2a5.91,5.91,0,0,0,2.15-5,5.35,5.35,0,0,0-1.33-3.8c-1.32-1.32-3.47-1.81-7.6-2.64l-9.74-1.82c-6.28-1.16-13.06-3.14-19.17-9.42-5.62-5.78-7.93-12.39-7.93-20.32A35.66,35.66,0,0,1,294.17,77.9C302.6,69.31,315,63.69,332.5,63.69c8.76,0,20.16,1.49,33.54,9.59Z"/><path class="cls-2" d="M386.86,176.37V66.17h74.35v18a12.26,12.26,0,0,1-12.27,12.26H432a5.12,5.12,0,0,0-5.12,5.12h0a5.12,5.12,0,0,0,5.12,5.12h11.65a14.46,14.46,0,0,1,14.46,14.46h0a14.46,14.46,0,0,1-14.46,14.45H432a5.13,5.13,0,0,0-5.12,5.13V141a5.12,5.12,0,0,0,5.12,5.12h18A12.26,12.26,0,0,1,462.2,158.4v18Z"/><path class="cls-3" d="M474.92,176.37l17.84-110.2h28.88A16.25,16.25,0,0,1,537.27,78l9.52,33.32A82.77,82.77,0,0,1,549.27,124h1a47.55,47.55,0,0,1,2.15-12.72L561.93,78a16.25,16.25,0,0,1,15.62-11.79H606.1l18,110.2h-25.2a14.69,14.69,0,0,1-14.62-13.23L580.66,127a104.65,104.65,0,0,1-.66-10.9h-.66c-.5,2.81-1.49,7.1-2.15,9.25l-12.81,40a15.94,15.94,0,0,1-15.19,11.09h0a16,16,0,0,1-15.26-11.3l-11.26-36.94a45.7,45.7,0,0,1-2.15-12.06h-1.16c0,2.15,0,6.44-.16,8.59l-4.07,38.56a14.69,14.69,0,0,1-14.61,13.15Z"/><path class="cls-4" d="M641.79,66.17h48.08c9.41,0,24.12,1,32.88,9.25,2.64,2.48,8.42,9.09,8.42,21.48,0,4.13-.49,10.08-4.62,15.2a23.33,23.33,0,0,1-9.59,6.78l-.16,1a25.42,25.42,0,0,1,11.56,6.61,24.93,24.93,0,0,1,8.1,19.16c0,8.59-2.81,16.19-10.41,22.3-9.25,7.44-20.49,8.43-28.25,8.43h-56Zm37,42.3h6.28c2.31,0,5.78-.66,7.6-2.48a7.89,7.89,0,0,0,2.14-5.78,7.29,7.29,0,0,0-2.47-5.78c-2.15-1.66-5.79-1.82-7.27-1.82H678.8Zm0,41.3h8.09c2.32,0,5.79-.16,8.43-1.82a8.68,8.68,0,0,0,3.8-7.43,8.38,8.38,0,0,0-3-6.61c-2.65-2.15-6.61-2.31-8.76-2.31H678.8Z"/><path class="cls-5" d="M753.64,176.37V66.17h40V128.4a12.27,12.27,0,0,0,12.28,12.28h9.14A12.28,12.28,0,0,1,827.33,153v23.4Z"/><path class="cls-6" d="M840.71,176.37V66.17h74.35V96.41H885.82a5.13,5.13,0,0,0-5.13,5.12h0a5.13,5.13,0,0,0,5.13,5.12h13.85a12.24,12.24,0,0,1,12.25,12.25v4.42a12.24,12.24,0,0,1-12.25,12.24H885.82a5.13,5.13,0,0,0-5.13,5.13V141a5.13,5.13,0,0,0,5.13,5.12h30.23v30.23Z"/><path class="cls-7" d="M266.35,178.85H198.51s-28.42-101.63-29-108.06H168c-.27,7.24-28.16,108.06-28.16,108.06H72L131.06,26A40.72,40.72,0,0,1,169,0h0a40.71,40.71,0,0,1,38,26Z"/><path class="cls-8" d="M0,93.77H48.11v85.08H0Z"/><path class="cls-8" d="M0,22.29H48.11V64.83H0Z"/><path class="cls-9" d="M944.5,93.77h48.11v85.08H944.5Z"/><path class="cls-9" d="M944.5,22.29h48.11V64.83H944.5Z"/></g></g></svg>