<svg xmlns="http://www.w3.org/2000/svg" xmlns:xlink="http://www.w3.org/1999/xlink" viewBox="0 0 995.74 214.37"><defs><style>.cls-1{stroke:#231f20;stroke-miterlimit:10;fill:url(#linear-gradient);}</style><linearGradient id="linear-gradient" x1="497.98" y1="304.01" x2="497.98" y2="24.91" gradientUnits="userSpaceOnUse"><stop offset="0" stop-color="#03739b"/><stop offset="0.11" stop-color="#077598"/><stop offset="0.23" stop-color="#137b91"/><stop offset="0.34" stop-color="#278484"/><stop offset="0.46" stop-color="#449271"/><stop offset="0.58" stop-color="#68a35a"/><stop offset="0.69" stop-color="#95b83d"/><stop offset="0.81" stop-color="#c9d11b"/><stop offset="0.89" stop-color="#f3e500"/></linearGradient></defs><title>Asset 3</title><g id="Layer_2" data-name="Layer 2"><g id="Layer_1-2" data-name="Layer 1"><path class="cls-1" d="M953.06,149.15V136.53h37.25V102H953.06V89.82h41V53.75h-88.7V102H849.19V53.75h-47.7V102H772.82a33,33,0,0,0,1.86-11.63c0-14.78-6.9-22.67-10-25.62-10.45-9.86-28-11-39.22-11H668.05V102H633.37l-7.9-48.29H576.79L563,102h-9.85l-13.8-48.29H490.26L482.44,102H411.62V89.82h41V53.75H363.92V102H305.54l-9.82-2.17C288.43,98.29,288,95.73,288,93a5.37,5.37,0,0,1,2.37-4.73c2.56-2,6.5-2.36,9.06-2.36,10.65,0,21.09,5.91,26.81,9.85l12.81-33.5c-16-9.66-29.56-11.44-40-11.44-20.89,0-35.68,6.7-45.73,16.95-8.67,8.68-12.81,19.12-12.81,31.34,0,1,.05,2,.11,3H189.23l-27.4-70.55A48.56,48.56,0,0,0,116.55.5h0a48.58,48.58,0,0,0-45.3,31.05L.73,213.87H81.66s18.49-66.83,28-104.44a30.63,30.63,0,1,1,13.47.14c9.9,37.58,28.56,104.3,28.56,104.3h80.93l-30-77.34h80.81l1.05.2c4.93,1,7.49,1.58,9.07,3.15a6.38,6.38,0,0,1,1.58,4.54,7.06,7.06,0,0,1-2.56,5.91c-1,.79-3.75,2.36-10.25,2.36-11.63,0-21.68-5.91-26.61-9.65l-5.13-3.95-14.39,37.06,4.34,1.77c11.24,4.54,24.64,10.25,44.74,10.25,24.64,0,38.83-9.06,46.32-16.75,8.87-9.27,11.83-19.71,11.83-30.95,0-1.26-.06-2.58-.17-3.94h20.67v48.69H453.8V149.15H411.62V136.53h65.24L469,185.22h46.31l5.14-48.69h8.21l14.84,48.69h28l15.6-48.69h9.08L601,185.22H647l-8-48.69h29v48.69h66.82c9.26,0,22.66-1.19,33.7-10.06,9.07-7.29,12.42-16.36,12.42-26.6a31.84,31.84,0,0,0-2.18-12h22.68v48.69H889.4V153.48H849.19V136.53h56.17v48.69h89.88V149.15ZM712.2,85.29h7.49c1.77,0,6.11.19,8.67,2.16a8.74,8.74,0,0,1,3,6.9,9.42,9.42,0,0,1-2.56,6.9,6.82,6.82,0,0,1-1,.79H712.2Zm24.24,57.15a10.35,10.35,0,0,1-4.53,8.87c-3.15,2-7.29,2.17-10,2.17H712.2V136.53h22.48A10.3,10.3,0,0,1,736.44,142.44Z"/></g></g></svg>